<mxfile host="app.diagrams.net" modified="2024-07-22T06:09:21.861Z" agent="Mozilla/5.0 (Macintosh; Intel Mac OS X 10_15_7) AppleWebKit/537.36 (KHTML, like Gecko) Chrome/126.0.0.0 Safari/537.36" etag="XPpBoZ3BTThZLpi6KEhq" version="24.7.1" type="github">
  <diagram id="prtHgNgQTEPvFCAcTncT" name="Page-1">
    <mxGraphModel dx="615" dy="391" grid="1" gridSize="10" guides="1" tooltips="1" connect="1" arrows="1" fold="1" page="1" pageScale="1" pageWidth="827" pageHeight="1169" math="0" shadow="0">
      <root>
        <mxCell id="0" />
        <mxCell id="1" parent="0" />
        <mxCell id="og0SsxBFhLElVJi0pChr-22" style="edgeStyle=orthogonalEdgeStyle;rounded=0;sketch=1;hachureGap=4;jiggle=2;curveFitting=1;orthogonalLoop=1;jettySize=auto;html=1;entryX=0.5;entryY=0;entryDx=0;entryDy=0;fontFamily=Architects Daughter;fontSource=https%3A%2F%2Ffonts.googleapis.com%2Fcss%3Ffamily%3DArchitects%2BDaughter;" edge="1" parent="1" source="og0SsxBFhLElVJi0pChr-16" target="og0SsxBFhLElVJi0pChr-19">
          <mxGeometry relative="1" as="geometry" />
        </mxCell>
        <mxCell id="og0SsxBFhLElVJi0pChr-16" value="" style="shape=actor;whiteSpace=wrap;html=1;sketch=1;hachureGap=4;jiggle=2;curveFitting=1;fontFamily=Architects Daughter;fontSource=https%3A%2F%2Ffonts.googleapis.com%2Fcss%3Ffamily%3DArchitects%2BDaughter;" vertex="1" parent="1">
          <mxGeometry x="460" y="10" width="40" height="60" as="geometry" />
        </mxCell>
        <mxCell id="og0SsxBFhLElVJi0pChr-24" value="" style="edgeStyle=orthogonalEdgeStyle;rounded=0;sketch=1;hachureGap=4;jiggle=2;curveFitting=1;orthogonalLoop=1;jettySize=auto;html=1;fontFamily=Architects Daughter;fontSource=https%3A%2F%2Ffonts.googleapis.com%2Fcss%3Ffamily%3DArchitects%2BDaughter;" edge="1" parent="1" source="og0SsxBFhLElVJi0pChr-17" target="og0SsxBFhLElVJi0pChr-23">
          <mxGeometry relative="1" as="geometry" />
        </mxCell>
        <mxCell id="og0SsxBFhLElVJi0pChr-17" value="访问小程序" style="whiteSpace=wrap;html=1;fontFamily=Architects Daughter;sketch=1;hachureGap=4;jiggle=2;curveFitting=1;fontSource=https%3A%2F%2Ffonts.googleapis.com%2Fcss%3Ffamily%3DArchitects%2BDaughter;" vertex="1" parent="1">
          <mxGeometry x="330" y="110" width="120" height="60" as="geometry" />
        </mxCell>
        <mxCell id="og0SsxBFhLElVJi0pChr-30" value="" style="edgeStyle=orthogonalEdgeStyle;rounded=0;sketch=1;hachureGap=4;jiggle=2;curveFitting=1;orthogonalLoop=1;jettySize=auto;html=1;fontFamily=Architects Daughter;fontSource=https%3A%2F%2Ffonts.googleapis.com%2Fcss%3Ffamily%3DArchitects%2BDaughter;" edge="1" parent="1" source="og0SsxBFhLElVJi0pChr-19" target="og0SsxBFhLElVJi0pChr-29">
          <mxGeometry relative="1" as="geometry" />
        </mxCell>
        <mxCell id="og0SsxBFhLElVJi0pChr-19" value="更新用户信息" style="whiteSpace=wrap;html=1;sketch=1;hachureGap=4;jiggle=2;curveFitting=1;fontFamily=Architects Daughter;fontSource=https%3A%2F%2Ffonts.googleapis.com%2Fcss%3Ffamily%3DArchitects%2BDaughter;" vertex="1" parent="1">
          <mxGeometry x="510" y="110" width="120" height="60" as="geometry" />
        </mxCell>
        <mxCell id="og0SsxBFhLElVJi0pChr-21" style="edgeStyle=orthogonalEdgeStyle;rounded=0;sketch=1;hachureGap=4;jiggle=2;curveFitting=1;orthogonalLoop=1;jettySize=auto;html=1;entryX=0.45;entryY=0.005;entryDx=0;entryDy=0;entryPerimeter=0;fontFamily=Architects Daughter;fontSource=https%3A%2F%2Ffonts.googleapis.com%2Fcss%3Ffamily%3DArchitects%2BDaughter;" edge="1" parent="1" source="og0SsxBFhLElVJi0pChr-16" target="og0SsxBFhLElVJi0pChr-17">
          <mxGeometry relative="1" as="geometry" />
        </mxCell>
        <mxCell id="og0SsxBFhLElVJi0pChr-26" value="" style="edgeStyle=orthogonalEdgeStyle;rounded=0;sketch=1;hachureGap=4;jiggle=2;curveFitting=1;orthogonalLoop=1;jettySize=auto;html=1;fontFamily=Architects Daughter;fontSource=https%3A%2F%2Ffonts.googleapis.com%2Fcss%3Ffamily%3DArchitects%2BDaughter;" edge="1" parent="1" source="og0SsxBFhLElVJi0pChr-23" target="og0SsxBFhLElVJi0pChr-25">
          <mxGeometry relative="1" as="geometry">
            <Array as="points">
              <mxPoint x="390" y="350" />
              <mxPoint x="310" y="350" />
            </Array>
          </mxGeometry>
        </mxCell>
        <mxCell id="og0SsxBFhLElVJi0pChr-27" style="edgeStyle=orthogonalEdgeStyle;rounded=0;sketch=1;hachureGap=4;jiggle=2;curveFitting=1;orthogonalLoop=1;jettySize=auto;html=1;fontFamily=Architects Daughter;fontSource=https%3A%2F%2Ffonts.googleapis.com%2Fcss%3Ffamily%3DArchitects%2BDaughter;exitX=0.579;exitY=1.032;exitDx=0;exitDy=0;exitPerimeter=0;" edge="1" parent="1" source="og0SsxBFhLElVJi0pChr-23">
          <mxGeometry relative="1" as="geometry">
            <mxPoint x="479.97" y="400" as="targetPoint" />
            <mxPoint x="400.0022580645161" y="320.0000000000001" as="sourcePoint" />
            <Array as="points">
              <mxPoint x="400" y="350" />
              <mxPoint x="480" y="350" />
            </Array>
          </mxGeometry>
        </mxCell>
        <mxCell id="og0SsxBFhLElVJi0pChr-23" value="获取用户信息" style="whiteSpace=wrap;html=1;fontFamily=Architects Daughter;sketch=1;hachureGap=4;jiggle=2;curveFitting=1;fontSource=https%3A%2F%2Ffonts.googleapis.com%2Fcss%3Ffamily%3DArchitects%2BDaughter;" vertex="1" parent="1">
          <mxGeometry x="330" y="250" width="120" height="60" as="geometry" />
        </mxCell>
        <mxCell id="og0SsxBFhLElVJi0pChr-25" value="更新Storage" style="whiteSpace=wrap;html=1;fontFamily=Architects Daughter;sketch=1;hachureGap=4;jiggle=2;curveFitting=1;fontSource=https%3A%2F%2Ffonts.googleapis.com%2Fcss%3Ffamily%3DArchitects%2BDaughter;" vertex="1" parent="1">
          <mxGeometry x="250" y="400" width="120" height="60" as="geometry" />
        </mxCell>
        <mxCell id="og0SsxBFhLElVJi0pChr-28" value="更新UI" style="whiteSpace=wrap;html=1;sketch=1;hachureGap=4;jiggle=2;curveFitting=1;fontFamily=Architects Daughter;fontSource=https%3A%2F%2Ffonts.googleapis.com%2Fcss%3Ffamily%3DArchitects%2BDaughter;" vertex="1" parent="1">
          <mxGeometry x="410" y="400" width="120" height="60" as="geometry" />
        </mxCell>
        <mxCell id="og0SsxBFhLElVJi0pChr-31" value="" style="edgeStyle=orthogonalEdgeStyle;rounded=0;sketch=1;hachureGap=4;jiggle=2;curveFitting=1;orthogonalLoop=1;jettySize=auto;html=1;fontFamily=Architects Daughter;fontSource=https%3A%2F%2Ffonts.googleapis.com%2Fcss%3Ffamily%3DArchitects%2BDaughter;" edge="1" parent="1" source="og0SsxBFhLElVJi0pChr-29" target="og0SsxBFhLElVJi0pChr-23">
          <mxGeometry relative="1" as="geometry" />
        </mxCell>
        <mxCell id="og0SsxBFhLElVJi0pChr-29" value="更新成功" style="rhombus;whiteSpace=wrap;html=1;fontFamily=Architects Daughter;sketch=1;hachureGap=4;jiggle=2;curveFitting=1;fontSource=https%3A%2F%2Ffonts.googleapis.com%2Fcss%3Ffamily%3DArchitects%2BDaughter;" vertex="1" parent="1">
          <mxGeometry x="530" y="240" width="80" height="80" as="geometry" />
        </mxCell>
        <mxCell id="og0SsxBFhLElVJi0pChr-32" value="Y" style="text;html=1;align=center;verticalAlign=middle;resizable=0;points=[];autosize=1;strokeColor=none;fillColor=none;fontFamily=Architects Daughter;fontSource=https%3A%2F%2Ffonts.googleapis.com%2Fcss%3Ffamily%3DArchitects%2BDaughter;" vertex="1" parent="1">
          <mxGeometry x="475" y="248" width="30" height="30" as="geometry" />
        </mxCell>
      </root>
    </mxGraphModel>
  </diagram>
</mxfile>
